<svg width="41" height="41" viewBox="0 0 41 41" fill="none" xmlns="http://www.w3.org/2000/svg">
<g clip-path="url(#clip0)">
<path d="M40.702 6.86771C40.4586 6.57559 40.0973 6.40646 39.7181 6.40646H8.6098C8.21262 6.40646 7.83594 6.59096 7.5925 6.90614C7.35163 7.22389 7.26963 7.63388 7.37213 8.01825L11.4721 23.3418C11.6233 23.9055 12.1306 24.2924 12.7097 24.2924C12.7302 24.2924 12.7533 24.2924 12.7738 24.2899L37.2197 23.0599C37.8116 23.0291 38.3087 22.5961 38.4163 22.0118L40.9788 7.91832C41.048 7.54163 40.9455 7.15726 40.702 6.86771Z" fill="#BED1E1"/>
<path d="M32.0307 19.2188C31.3235 19.2188 30.7495 18.6448 30.7495 17.9376V12.8126C30.7495 12.1054 31.3235 11.5314 32.0307 11.5314C32.738 11.5314 33.312 12.1054 33.312 12.8126V17.9376C33.312 18.6448 32.738 19.2188 32.0307 19.2188Z" fill="#FAFAFA"/>
<path d="M24.3432 19.2188C23.636 19.2188 23.062 18.6448 23.062 17.9376V12.8126C23.062 12.1054 23.636 11.5314 24.3432 11.5314C25.0505 11.5314 25.6245 12.1054 25.6245 12.8126V17.9376C25.6245 18.6448 25.0505 19.2188 24.3432 19.2188Z" fill="#FAFAFA"/>
<path d="M16.656 19.2188C15.9487 19.2188 15.3748 18.6448 15.3748 17.9376V12.8126C15.3748 12.1054 15.9487 11.5314 16.656 11.5314C17.3632 11.5314 17.9372 12.1054 17.9372 12.8126V17.9376C17.9372 18.6448 17.3632 19.2188 16.656 19.2188Z" fill="#FAFAFA"/>
<path d="M16.6559 39.7184C18.7788 39.7184 20.4996 37.9976 20.4996 35.8748C20.4996 33.7519 18.7788 32.0311 16.6559 32.0311C14.5331 32.0311 12.8123 33.7519 12.8123 35.8748C12.8123 37.9976 14.5331 39.7184 16.6559 39.7184Z" fill="#455A64"/>
<path d="M32.0307 39.7184C34.1535 39.7184 35.8744 37.9976 35.8744 35.8748C35.8744 33.7519 34.1535 32.0311 32.0307 32.0311C29.9079 32.0311 28.187 33.7519 28.187 35.8748C28.187 37.9976 29.9079 39.7184 32.0307 39.7184Z" fill="#455A64"/>
<path d="M34.5932 29.4686H14.0935C13.5119 29.4686 13.0045 29.0791 12.8559 28.5179L6.26778 3.84402H1.28123C0.573991 3.84402 0 3.27002 0 2.56279C0 1.85555 0.573991 1.28156 1.28123 1.28156H7.25176C7.83344 1.28156 8.34081 1.67105 8.48943 2.23223L15.0775 26.9062H34.5932C35.3004 26.9062 35.8744 27.4801 35.8744 28.1874C35.8744 28.8946 35.3004 29.4686 34.5932 29.4686Z" fill="#455A64"/>
</g>
<defs>
<clipPath id="clip0">
<rect width="41" height="41" fill="white"/>
</clipPath>
</defs>
</svg>
